<?xml version="1.0" encoding="UTF-8" standalone="no"?>
<svg width="342px" height="81px" viewBox="0 0 342 81" version="1.1" xmlns="http://www.w3.org/2000/svg" xmlns:xlink="http://www.w3.org/1999/xlink">
    <!-- Generator: Sketch 3.7 (28169) - http://www.bohemiancoding.com/sketch -->
    <title>Bionexo logo Copy@1x</title>
    <desc>Created with Sketch.</desc>
    <defs></defs>
    <g id="Page-1" stroke="none" stroke-width="1" fill="none" fill-rule="evenodd">
        <g id="White---BG-light-blue" transform="translate(-82.000000, -81.000000)" fill="#FFFFFF">
            <g id="Bionexo-logo-Copy" transform="translate(82.000000, 81.000000)">
                <path d="M58.1162775,80.9547585 L72.8440231,80.9547585 L72.8440231,27.4147463 L58.1162775,27.4147463 L58.1162775,80.9547585 Z M74.2268497,13.9825756 C74.2268497,16.6832341 73.3540578,18.8060268 71.608474,20.3539171 C69.8609133,21.9008195 67.8019942,22.6742707 65.4307283,22.6742707 C63.058474,22.6742707 60.9985665,21.9008195 59.2529827,20.3539171 C57.505422,18.8060268 56.6336185,16.6832341 56.6336185,13.9825756 C56.6336185,11.2819171 57.505422,9.15912439 59.2529827,7.61024634 C60.9985665,6.06433171 63.058474,5.28989268 65.4307283,5.28989268 C67.8019942,5.28989268 69.8609133,6.06433171 71.608474,7.61024634 C73.3540578,9.15912439 74.2268497,11.2819171 74.2268497,13.9825756 L74.2268497,13.9825756 Z" id="Fill-1"></path>
                <path d="M225.228251,49.2238976 C225.163014,48.006922 224.954454,46.8195805 224.602569,45.6658244 C224.248708,44.5120683 223.704078,43.4877146 222.967691,42.5888122 C222.229327,41.6918854 221.299205,40.9539951 220.177327,40.3771171 C219.05446,39.800239 217.658783,39.5118 215.991286,39.5118 C214.387049,39.5118 213.008176,39.7844341 211.853679,40.3297024 C210.700171,40.8739829 209.737431,41.5950805 208.967436,42.4929951 C208.197442,43.3909098 207.60339,44.4320561 207.187257,45.6184098 C206.769147,46.8047634 206.465697,48.006922 206.272951,49.2238976 L225.228251,49.2238976 Z M191.552124,54.704239 C191.552124,50.2186171 192.241066,46.2901171 193.620928,42.9246659 C194.999801,39.5592146 196.81161,36.7568122 199.057344,34.5115317 C201.30209,32.2692146 203.882905,30.5692024 206.802754,29.4154463 C209.720627,28.2616902 212.719552,27.6848122 215.799529,27.6848122 C222.982517,27.6848122 228.659124,29.8807024 232.82935,34.2705073 C236.997598,38.6622878 239.084194,45.1225317 239.084194,53.6463 C239.084194,54.4809951 239.050587,55.3937268 238.987327,56.3864707 C238.92209,57.382178 238.858829,58.2623122 238.794581,59.0308244 L206.272951,59.0308244 C206.593205,61.9804098 207.972078,64.3195317 210.410558,66.0511537 C212.848049,67.7817878 216.119783,68.6461171 220.224772,68.6461171 C222.855009,68.6461171 225.435824,68.4060805 227.970182,67.9250195 C230.503552,67.4449463 232.572355,66.8532512 234.176592,66.1469707 L236.101084,77.7813366 C235.33109,78.1665805 234.304101,78.5518244 233.021107,78.9350927 C231.738113,79.3203366 230.311795,79.6561902 228.740176,79.9446293 C227.167569,80.2340561 225.484257,80.4740927 223.689251,80.6657268 C221.892269,80.8583488 220.096275,80.9551537 218.30028,80.9551537 C213.745552,80.9551537 209.785864,80.2814707 206.418251,78.9350927 C203.050639,77.5897024 200.259286,75.7474463 198.047159,73.4063488 C195.834043,71.0672268 194.198176,68.2954463 193.140546,65.0900195 C192.080939,61.8845927 191.552124,58.4223366 191.552124,54.704239 L191.552124,54.704239 Z" id="Fill-3"></path>
                <path d="M276.616717,27.6846146 L266.721451,42.6666512 L256.79752,27.6846146 L240.678052,27.6846146 C243.63052,31.8768585 246.615607,36.1175049 249.638254,40.404578 C252.515601,44.4931024 255.519468,49.7561268 258.62811,54.1706268 C255.519468,58.5861146 252.515601,63.8461756 249.638254,67.9356878 C246.615607,72.222761 243.63052,76.4643951 240.678052,80.6546634 L256.79752,80.6546634 L266.721451,65.6755902 L276.616717,80.6546634 L293.033705,80.6546634 L274.831595,54.1706268 L293.033705,27.6846146 L276.616717,27.6846146 Z" id="Fill-4"></path>
                <path d="M137.642447,27.2983829 L137.93206,80.363261 L152.964245,80.363261 L152.964245,39.4227 C153.906227,39.4227 155.599424,39.3980049 156.813227,39.3980049 L159.842794,39.3980049 C163.339892,39.3980049 165.508528,39.9294439 166.78658,41.9455537 C168.066609,43.9606756 168.706129,47.391322 168.706129,52.2295902 L168.706129,80.363261 L183.738314,80.363261 L183.738314,50.4149927 C183.738314,46.7857976 183.369626,43.4924561 182.630273,40.5329927 C181.888944,37.5755049 180.645487,35.0240049 178.896938,32.8705902 C177.147401,30.7191512 174.948123,28.4432488 171.781164,27.8772366 C168.527221,27.2983829 165.356308,27.2983829 160.851002,27.2983829 L137.642447,27.2983829 Z" id="Fill-5"></path>
                <path d="M115.536792,54.224561 C115.555573,49.8080854 114.687723,46.3339756 112.938186,43.7972927 C111.186671,41.2625854 108.679001,39.9873293 105.412209,39.9735 C102.146405,39.9596707 99.6100699,41.2141829 97.8071566,43.7340732 C96.0032549,46.255939 95.0929023,49.724122 95.074122,54.1396098 C95.0553416,58.5560854 95.9380179,62.0637805 97.720174,64.6636829 C99.5023301,67.2635854 102.027792,68.5694634 105.293596,68.5832927 C108.560388,68.597122 111.077943,67.311 112.851203,64.7269024 C114.622486,62.1418171 115.518012,58.6410366 115.536792,54.224561 M130.139006,54.2848171 C130.122203,58.2538171 129.531116,61.8830122 128.363769,65.174378 C127.197411,68.4667317 125.520029,71.2760488 123.333602,73.6023293 C121.146186,75.9305854 118.528798,77.7274024 115.482428,78.9937683 C112.434082,80.261122 109.021001,80.8873902 105.243186,80.8715854 C101.527642,80.8567683 98.1511335,80.2018537 95.1156364,78.9098049 C92.0781624,77.6177561 89.4756017,75.7992073 87.3089428,73.4531707 C85.1403069,71.1091098 83.4540295,68.2859634 82.2520873,64.9837317 C81.0481682,61.6824878 80.4560931,58.0483537 80.4719081,54.0793537 C80.4887116,50.1113415 81.1282318,46.4979512 82.3904688,43.2381951 C83.6527058,39.9794268 85.3933474,37.2027073 87.6123936,34.9070488 C89.8314399,32.612378 92.4646422,30.8323537 95.5120006,29.5640122 C98.559359,28.2966585 101.875573,27.6703902 105.463608,27.6852073 C109.113914,27.7000244 112.456816,28.354939 115.49429,29.6469878 C118.529787,30.9400244 121.133336,32.7417805 123.301972,35.0552195 C125.468631,37.3686585 127.154908,40.1601951 128.358827,43.4288415 C129.560769,46.6984756 130.154821,50.3168049 130.139006,54.2848171" id="Fill-6"></path>
                <path d="M327.392251,54.224561 C327.411031,49.8080854 326.543182,46.3339756 324.793644,43.7972927 C323.042129,41.2625854 320.534459,39.9873293 317.267667,39.9735 C314.001864,39.9596707 311.465528,41.2141829 309.662615,43.7340732 C307.858713,46.255939 306.948361,49.724122 306.92958,54.1396098 C306.911788,58.5560854 307.793476,62.0637805 309.575632,64.6636829 C311.357788,67.2635854 313.883251,68.5694634 317.149054,68.5832927 C320.415846,68.597122 322.933401,67.311 324.706661,64.7269024 C326.477945,62.1418171 327.373471,58.6410366 327.392251,54.224561 M341.994465,54.2848171 C341.977661,58.2538171 341.386575,61.8830122 340.219228,65.174378 C339.052869,68.4667317 337.375488,71.2760488 335.18906,73.6023293 C333.001644,75.9305854 330.384257,77.7274024 327.337887,78.9937683 C324.28954,80.261122 320.876459,80.8873902 317.098644,80.8715854 C313.383101,80.8567683 310.006592,80.2018537 306.971095,78.9098049 C303.933621,77.6177561 301.33106,75.7992073 299.164401,73.4531707 C296.995765,71.1091098 295.309488,68.2859634 294.107546,64.9837317 C292.903627,61.6824878 292.311551,58.0483537 292.327366,54.0793537 C292.34417,50.1113415 292.98369,46.4979512 294.245927,43.2381951 C295.508164,39.9794268 297.248806,37.2027073 299.467852,34.9070488 C301.686898,32.612378 304.320101,30.8323537 307.367459,29.5640122 C310.414817,28.2966585 313.731031,27.6703902 317.319066,27.6852073 C320.969372,27.7000244 324.312274,28.354939 327.349748,29.6469878 C330.385245,30.9400244 332.988794,32.7417805 335.15743,35.0552195 C337.324089,37.3686585 339.010366,40.1601951 340.214286,43.4288415 C341.416228,46.6984756 342.01028,50.3168049 341.994465,54.2848171" id="Fill-7"></path>
                <path d="M31.4517434,64.8262756 C29.3463676,67.6622634 26.2238879,69.0807512 22.0833156,69.0807512 C20.7252,69.0807512 19.4698821,69.0293854 18.3163734,68.9286293 C17.1608879,68.8268854 16.2109977,68.7103244 15.464726,68.5740073 L15.2739572,39.4782146 L20.3654081,39.4782146 L24.4387665,39.4782146 C31.6326277,39.4782146 34.6088185,43.8591293 34.6088185,53.5830805 C34.6088185,58.2425561 33.5551422,61.9902878 31.4517434,64.8262756 M48.5586624,42.5927634 C47.5405699,39.1838488 46.0460497,36.261922 44.0780671,33.8309341 C42.1081075,31.3999463 39.6646855,29.5260805 36.7468127,28.2093366 C33.826963,26.8925927 30.2755006,27.3232756 26.4749514,27.3232756 L21.3835006,27.3232756 L15.2739572,27.3232756 L15.464726,-0.000395121951 L-0.000395375723,6.05188537 L0.293171098,80.9314463 L22.1851249,80.9314463 C26.5975179,80.9314463 30.5354601,81.2860683 33.9969746,79.9693244 C37.4594775,78.6525805 40.3773503,76.7787146 42.7545468,74.3477268 C45.1297665,71.916739 46.9455295,68.9790073 48.2018358,65.5355195 C49.4571538,62.0910439 50.0858012,58.2425561 50.0858012,53.9880805 C50.0858012,49.8017634 49.5767549,46.0036537 48.5586624,42.5927634" id="Fill-8"></path>
            </g>
        </g>
    </g>
</svg>